<svg width="180" height="30" viewBox="0 0 180 30" fill="none" xmlns="http://www.w3.org/2000/svg">
<g clip-path="url(#clip0_77_233)">
<path d="M51.7638 10.5144V9.31604H60.1247V10.5144H56.6177V20.4544H55.2663V10.5144H51.7592H51.7638Z" fill="#D15353"/>
<path d="M65.4382 20.6288C64.6844 20.6288 64.0225 20.4498 63.4526 20.0917C62.8826 19.7336 62.4414 19.2285 62.1242 18.5857C61.8071 17.9384 61.6462 17.1854 61.6462 16.3223C61.6462 15.4591 61.8071 14.6924 62.1242 14.045C62.4414 13.3976 62.8826 12.8926 63.4526 12.5345C64.0225 12.1764 64.6798 11.9973 65.4382 11.9973C66.1967 11.9973 66.854 12.1764 67.4239 12.5345C67.9939 12.8926 68.4351 13.3976 68.7523 14.045C69.0694 14.6924 69.2303 15.4545 69.2303 16.3223C69.2303 17.19 69.0694 17.9384 68.7523 18.5857C68.4351 19.2331 67.9939 19.7336 67.4239 20.0917C66.854 20.4498 66.1967 20.6288 65.4382 20.6288ZM65.4382 19.4764C66.0128 19.4764 66.4816 19.3295 66.854 19.0357C67.2263 18.7418 67.4975 18.3562 67.6767 17.8787C67.856 17.4012 67.9433 16.8824 67.9433 16.3223C67.9433 15.7621 67.856 15.2433 67.6767 14.7612C67.4975 14.2792 67.2263 13.8889 66.854 13.5905C66.4816 13.292 66.0128 13.1451 65.4382 13.1451C64.8637 13.1451 64.3949 13.292 64.0225 13.5905C63.6502 13.8889 63.379 14.2792 63.1998 14.7612C63.0205 15.2433 62.9332 15.7621 62.9332 16.3223C62.9332 16.8824 63.0205 17.4012 63.1998 17.8787C63.379 18.3562 63.6502 18.7418 64.0225 19.0357C64.3949 19.3295 64.8637 19.4764 65.4382 19.4764Z" fill="#D15353"/>
<path d="M71.1884 20.4544V12.1029H72.4294V13.4068H72.5397C72.7144 12.9615 72.9948 12.6126 73.3855 12.3646C73.7716 12.1167 74.2404 11.9927 74.7828 11.9927C75.3252 11.9927 75.794 12.1167 76.1617 12.3646C76.5294 12.6126 76.819 12.9615 77.0258 13.4068H77.1132C77.3292 12.9753 77.6464 12.6309 78.0784 12.3784C78.5105 12.1259 79.0207 11.9973 79.6182 11.9973C80.3675 11.9973 80.9788 12.2315 81.4522 12.6952C81.9256 13.1589 82.1647 13.8843 82.1647 14.8669V20.4544H80.8823V14.8669C80.8823 14.2516 80.7122 13.8109 80.3766 13.5446C80.0411 13.2783 79.6412 13.1497 79.1862 13.1497C78.5978 13.1497 78.1428 13.3242 77.821 13.6777C77.4993 14.0312 77.3384 14.4766 77.3384 15.0184V20.4544H76.033V14.7337C76.033 14.2608 75.8767 13.8751 75.5688 13.5859C75.2608 13.2921 74.8609 13.1497 74.3783 13.1497C74.0427 13.1497 73.7348 13.237 73.4452 13.416C73.1556 13.5951 72.9258 13.8384 72.7466 14.1506C72.5719 14.4628 72.4846 14.8255 72.4846 15.2342V20.4544H71.2022H71.1884Z" fill="#D15353"/>
<path d="M87.9102 20.6288C87.1564 20.6288 86.4945 20.4498 85.9246 20.0917C85.3546 19.7336 84.9134 19.2285 84.5962 18.5857C84.279 17.9384 84.1182 17.1854 84.1182 16.3223C84.1182 15.4591 84.279 14.6924 84.5962 14.045C84.9134 13.3976 85.3546 12.8926 85.9246 12.5345C86.4945 12.1764 87.1518 11.9973 87.9102 11.9973C88.6686 11.9973 89.3259 12.1764 89.8959 12.5345C90.4659 12.8926 90.9071 13.3976 91.2243 14.045C91.5414 14.6924 91.7023 15.4545 91.7023 16.3223C91.7023 17.19 91.5414 17.9384 91.2243 18.5857C90.9071 19.2331 90.4659 19.7336 89.8959 20.0917C89.3259 20.4498 88.6686 20.6288 87.9102 20.6288ZM87.9102 19.4764C88.4848 19.4764 88.9536 19.3295 89.3259 19.0357C89.6982 18.7418 89.9694 18.3562 90.1487 17.8787C90.328 17.4012 90.4153 16.8824 90.4153 16.3223C90.4153 15.7621 90.328 15.2433 90.1487 14.7612C89.9694 14.2792 89.6982 13.8889 89.3259 13.5905C88.9536 13.292 88.4848 13.1451 87.9102 13.1451C87.3357 13.1451 86.8668 13.292 86.4945 13.5905C86.1222 13.8889 85.851 14.2792 85.6718 14.7612C85.4925 15.2433 85.4052 15.7621 85.4052 16.3223C85.4052 16.8824 85.4925 17.4012 85.6718 17.8787C85.851 18.3562 86.1222 18.7418 86.4945 19.0357C86.8668 19.3295 87.3357 19.4764 87.9102 19.4764Z" fill="#D15353"/>
<path d="M99.5806 13.9716L98.4269 14.2975C98.3533 14.1047 98.2476 13.9165 98.1097 13.7328C97.9718 13.5492 97.7788 13.3977 97.5398 13.2783C97.3008 13.1589 96.9928 13.0992 96.6205 13.0992C96.1103 13.0992 95.6828 13.214 95.3427 13.4482C95.0025 13.6823 94.8325 13.9762 94.8325 14.3389C94.8325 14.6557 94.9474 14.9082 95.1818 15.0964C95.4162 15.2847 95.7747 15.4362 96.2712 15.5601L97.5122 15.8632C98.2614 16.0468 98.8176 16.3223 99.1853 16.6942C99.553 17.0661 99.7369 17.5435 99.7369 18.1266C99.7369 18.6041 99.599 19.0311 99.3278 19.4076C99.052 19.7841 98.6705 20.0825 98.1833 20.2983C97.6915 20.5141 97.1215 20.6243 96.4734 20.6243C95.6185 20.6243 94.9152 20.4406 94.3544 20.0687C93.7937 19.6968 93.4397 19.1597 93.2927 18.448L94.5107 18.145C94.6256 18.5949 94.8463 18.9301 95.1726 19.1551C95.499 19.38 95.9218 19.4902 96.4504 19.4902C97.048 19.4902 97.526 19.3617 97.8799 19.1092C98.2338 18.8521 98.4085 18.5444 98.4085 18.1863C98.4085 17.8971 98.3074 17.6537 98.1051 17.4563C97.9029 17.2589 97.5903 17.112 97.1675 17.011L95.7747 16.685C95.0071 16.5013 94.4464 16.2213 94.0878 15.8402C93.7293 15.4591 93.5501 14.977 93.5501 14.4031C93.5501 13.9302 93.6834 13.517 93.95 13.1543C94.2165 12.7916 94.5797 12.507 95.0439 12.3003C95.5081 12.0937 96.0321 11.9927 96.6205 11.9927C97.4478 11.9927 98.1005 12.1718 98.574 12.5345C99.0474 12.8972 99.383 13.3747 99.5852 13.9716H99.5806Z" fill="#D15353"/>
<path d="M105.225 20.4544V9.32065H108.824C109.615 9.32065 110.277 9.47216 110.81 9.77518C111.343 10.0782 111.743 10.4868 112.014 11.0056C112.285 11.5244 112.418 12.1075 112.418 12.7549C112.418 13.4023 112.285 13.9899 112.014 14.5088C111.747 15.0276 111.348 15.4408 110.814 15.7438C110.286 16.0468 109.624 16.1983 108.838 16.1983H106.006V15.2847H108.81C109.394 15.2847 109.881 15.1745 110.263 14.9541C110.649 14.7337 110.934 14.4353 111.127 14.0542C111.32 13.6731 111.412 13.2416 111.412 12.7549C111.412 12.2682 111.315 11.8366 111.127 11.4556C110.938 11.0745 110.649 10.7761 110.263 10.5603C109.877 10.3445 109.389 10.2343 108.796 10.2343H106.245V20.459H105.23L105.225 20.4544Z" fill="#515051"/>
<path d="M117.994 20.6289C117.213 20.6289 116.537 20.4452 115.967 20.0825C115.397 19.7198 114.956 19.2102 114.648 18.5674C114.335 17.92 114.184 17.1762 114.184 16.3315C114.184 15.4867 114.34 14.7429 114.648 14.0863C114.956 13.4344 115.388 12.9202 115.939 12.5483C116.491 12.1764 117.125 11.9927 117.847 11.9927C118.302 11.9927 118.739 12.0754 119.157 12.2407C119.575 12.4059 119.957 12.6585 120.292 12.9982C120.628 13.338 120.894 13.765 121.092 14.2746C121.29 14.7888 121.386 15.3948 121.386 16.0927V16.5702H114.855V15.7162H120.398C120.398 15.1791 120.292 14.697 120.076 14.2654C119.86 13.8338 119.561 13.4941 119.18 13.2461C118.798 12.9982 118.357 12.8697 117.856 12.8697C117.327 12.8697 116.859 13.012 116.459 13.2921C116.054 13.5767 115.742 13.9486 115.516 14.4123C115.291 14.876 115.176 15.3857 115.172 15.9366V16.4462C115.172 17.1074 115.287 17.6905 115.516 18.1817C115.746 18.6776 116.073 19.0587 116.5 19.3295C116.923 19.6004 117.429 19.7382 118.008 19.7382C118.403 19.7382 118.752 19.6785 119.051 19.5545C119.35 19.4305 119.603 19.2653 119.81 19.0587C120.016 18.8521 120.168 18.6225 120.274 18.37L121.193 18.6684C121.064 19.0219 120.858 19.3433 120.568 19.6417C120.278 19.9402 119.92 20.1789 119.492 20.358C119.06 20.537 118.569 20.6289 118.008 20.6289H117.994Z" fill="#515051"/>
<path d="M123.51 20.4544V12.1029H124.452V13.3839H124.521C124.686 12.9615 124.981 12.6217 125.394 12.3646C125.808 12.1075 126.281 11.9744 126.805 11.9744C126.883 11.9744 126.975 11.9744 127.072 11.979C127.168 11.979 127.251 11.9881 127.316 11.9881V12.9707C127.274 12.9615 127.196 12.9523 127.086 12.9385C126.975 12.9248 126.86 12.9156 126.732 12.9156C126.295 12.9156 125.909 13.0074 125.569 13.191C125.229 13.3747 124.962 13.6272 124.765 13.9486C124.567 14.27 124.47 14.6373 124.47 15.0505V20.4452H123.5L123.51 20.4544Z" fill="#515051"/>
<path d="M129.485 10.6659C129.287 10.6659 129.113 10.597 128.975 10.4639C128.832 10.3261 128.763 10.1654 128.763 9.9726C128.763 9.77977 128.837 9.61449 128.979 9.48134C129.122 9.3436 129.292 9.27933 129.49 9.27933C129.687 9.27933 129.857 9.34819 130 9.48134C130.142 9.61908 130.211 9.77977 130.211 9.9726C130.211 10.1654 130.138 10.3307 129.995 10.4639C129.853 10.6016 129.683 10.6659 129.485 10.6659ZM128.989 20.4544V12.1029H129.963V20.4544H128.989Z" fill="#515051"/>
<path d="M135.971 12.1029V12.9477H131.861V12.1029H135.971ZM133.148 20.4544V10.8771C133.148 10.4271 133.254 10.0507 133.461 9.73845C133.668 9.43083 133.944 9.19668 134.279 9.03598C134.615 8.87529 134.973 8.79724 135.35 8.79724C135.603 8.79724 135.814 8.8202 135.984 8.86152C136.155 8.90284 136.288 8.94416 136.384 8.98548L136.099 9.83486C136.026 9.81191 135.939 9.78895 135.833 9.75681C135.727 9.72926 135.594 9.71549 135.437 9.71549C135.015 9.71549 134.693 9.83486 134.463 10.069C134.233 10.3032 134.118 10.6429 134.118 11.0791V20.4544H133.144H133.148Z" fill="#515051"/>
<path d="M141.289 20.6289C140.507 20.6289 139.832 20.4452 139.262 20.0825C138.692 19.7198 138.25 19.2102 137.943 18.5674C137.635 17.92 137.478 17.1763 137.478 16.3315C137.478 15.4867 137.635 14.7429 137.943 14.0864C138.25 13.4344 138.683 12.9202 139.234 12.5483C139.786 12.1764 140.42 11.9928 141.142 11.9928C141.597 11.9928 142.033 12.0754 142.452 12.2407C142.87 12.406 143.251 12.6585 143.587 12.9982C143.922 13.338 144.189 13.765 144.387 14.2746C144.584 14.7888 144.681 15.3949 144.681 16.0927V16.5702H138.149V15.7162H143.693C143.693 15.1791 143.587 14.697 143.371 14.2654C143.155 13.8338 142.856 13.4941 142.475 13.2462C142.093 12.9982 141.652 12.8697 141.151 12.8697C140.622 12.8697 140.153 13.012 139.754 13.2921C139.349 13.5767 139.036 13.9486 138.811 14.4123C138.586 14.8761 138.471 15.3857 138.467 15.9366V16.4463C138.467 17.1074 138.581 17.6905 138.811 18.1817C139.041 18.6776 139.367 19.0587 139.795 19.3296C140.218 19.6004 140.723 19.7382 141.303 19.7382C141.698 19.7382 142.047 19.6785 142.346 19.5545C142.645 19.4306 142.897 19.2653 143.104 19.0587C143.311 18.8521 143.463 18.6225 143.569 18.37L144.488 18.6684C144.359 19.0219 144.152 19.3433 143.863 19.6418C143.573 19.9402 143.215 20.1789 142.787 20.358C142.355 20.5371 141.863 20.6289 141.303 20.6289H141.289ZM140.641 10.9459L142.033 8.47586H143.182L141.509 10.9459H140.641Z" fill="#515051"/>
<path d="M146.809 20.4544V12.1029H147.751V13.3839H147.82C147.986 12.9615 148.28 12.6217 148.694 12.3646C149.107 12.1075 149.581 11.9744 150.105 11.9744C150.183 11.9744 150.275 11.9744 150.371 11.979C150.468 11.979 150.551 11.9881 150.615 11.9881V12.9707C150.574 12.9615 150.495 12.9523 150.385 12.9385C150.275 12.9248 150.16 12.9156 150.031 12.9156C149.595 12.9156 149.208 13.0074 148.868 13.191C148.528 13.3747 148.262 13.6272 148.064 13.9486C147.866 14.27 147.77 14.6373 147.77 15.0505V20.4452H146.8L146.809 20.4544Z" fill="#515051"/>
<path d="M152.78 10.6659C152.582 10.6659 152.408 10.597 152.27 10.4639C152.127 10.3261 152.058 10.1654 152.058 9.9726C152.058 9.77977 152.132 9.61449 152.274 9.48134C152.417 9.3436 152.587 9.27933 152.784 9.27933C152.982 9.27933 153.152 9.34819 153.295 9.48134C153.437 9.61908 153.506 9.77977 153.506 9.9726C153.506 10.1654 153.433 10.3307 153.29 10.4639C153.148 10.6016 152.978 10.6659 152.78 10.6659ZM152.288 20.4544V12.1029H153.262V20.4544H152.288Z" fill="#515051"/>
<path d="M159.095 20.6289C158.346 20.6289 157.698 20.4406 157.142 20.0687C156.59 19.6969 156.158 19.1826 155.855 18.5353C155.552 17.8879 155.395 17.1487 155.395 16.3177C155.395 15.4867 155.552 14.7337 155.86 14.0818C156.167 13.4298 156.6 12.9156 157.151 12.5437C157.703 12.1718 158.342 11.9882 159.072 11.9882C159.633 11.9882 160.139 12.0984 160.589 12.3095C161.044 12.5253 161.417 12.8284 161.715 13.2186C162.014 13.6089 162.198 14.0634 162.272 14.5822H161.292C161.191 14.1093 160.948 13.7099 160.562 13.3701C160.176 13.035 159.684 12.8651 159.091 12.8651C158.558 12.8651 158.084 13.0074 157.675 13.2967C157.266 13.5859 156.944 13.9853 156.714 14.4996C156.485 15.0138 156.37 15.6061 156.37 16.281C156.37 16.9559 156.48 17.5573 156.705 18.0761C156.93 18.595 157.248 19.0036 157.657 19.2974C158.066 19.5913 158.544 19.7382 159.091 19.7382C159.463 19.7382 159.799 19.6693 160.107 19.527C160.415 19.3847 160.672 19.1872 160.879 18.9301C161.086 18.673 161.228 18.3654 161.302 18.0119H162.281C162.207 18.5169 162.028 18.9623 161.743 19.3571C161.458 19.7519 161.09 20.0596 160.64 20.2845C160.189 20.5095 159.67 20.6197 159.091 20.6197L159.095 20.6289Z" fill="#515051"/>
<path d="M167.608 20.6289C166.886 20.6289 166.247 20.4452 165.696 20.0779C165.144 19.7106 164.708 19.2056 164.4 18.5582C164.087 17.9108 163.931 17.1625 163.931 16.3131C163.931 15.4637 164.087 14.7062 164.4 14.0542C164.712 13.4022 165.144 12.8972 165.696 12.5299C166.247 12.1626 166.886 11.9836 167.608 11.9836C168.33 11.9836 168.969 12.1672 169.52 12.5345C170.072 12.9018 170.504 13.4068 170.816 14.0588C171.129 14.7062 171.285 15.4591 171.285 16.3177C171.285 17.1762 171.129 17.9154 170.816 18.5628C170.504 19.2102 170.072 19.7152 169.52 20.0825C168.969 20.4498 168.33 20.6334 167.608 20.6334V20.6289ZM167.608 19.7427C168.187 19.7427 168.679 19.5866 169.083 19.2744C169.488 18.9622 169.791 18.549 170.003 18.0302C170.21 17.5114 170.315 16.9421 170.315 16.3177C170.315 15.6933 170.21 15.1194 170.003 14.6006C169.796 14.0772 169.488 13.6594 169.083 13.3426C168.679 13.0258 168.187 12.8697 167.608 12.8697C167.029 12.8697 166.542 13.0258 166.137 13.3426C165.733 13.6594 165.425 14.0772 165.218 14.6006C165.011 15.124 164.905 15.6933 164.905 16.3177C164.905 16.9421 165.011 17.5114 165.218 18.0302C165.425 18.549 165.733 18.9622 166.137 19.2744C166.542 19.5866 167.033 19.7427 167.613 19.7427H167.608Z" fill="#515051"/>
<path d="M179.035 13.9348L178.148 14.1828C178.06 13.9348 177.936 13.7053 177.775 13.5033C177.614 13.3012 177.408 13.1405 177.15 13.0212C176.893 12.9018 176.576 12.8421 176.199 12.8421C175.633 12.8421 175.169 12.9753 174.806 13.2461C174.443 13.5124 174.264 13.8614 174.264 14.2838C174.264 14.6419 174.388 14.9357 174.636 15.1561C174.884 15.3811 175.27 15.5555 175.785 15.6841L177.049 15.9917C177.748 16.1616 178.276 16.4325 178.626 16.7998C178.975 17.1671 179.15 17.6354 179.15 18.1909C179.15 18.6638 179.021 19.0816 178.759 19.4489C178.497 19.8162 178.134 20.1009 177.67 20.3121C177.205 20.5187 176.663 20.6243 176.052 20.6243C175.233 20.6243 174.562 20.4406 174.034 20.0733C173.505 19.706 173.165 19.1734 173.018 18.4756L173.946 18.246C174.066 18.7419 174.3 19.1183 174.65 19.3709C174.999 19.6234 175.463 19.7519 176.033 19.7519C176.677 19.7519 177.187 19.6096 177.573 19.3204C177.959 19.0311 178.152 18.6684 178.152 18.2368C178.152 17.9017 178.037 17.617 177.817 17.3874C177.591 17.1579 177.251 16.988 176.792 16.8778L175.427 16.5518C174.7 16.3774 174.163 16.1019 173.813 15.7254C173.464 15.3489 173.289 14.8806 173.289 14.3205C173.289 13.8614 173.413 13.4573 173.666 13.1038C173.914 12.7549 174.259 12.4794 174.7 12.282C175.142 12.0846 175.638 11.9836 176.203 11.9836C176.971 11.9836 177.582 12.158 178.042 12.5024C178.502 12.8467 178.833 13.3242 179.035 13.9302V13.9348Z" fill="#515051"/>
<path d="M2.83008 4.97735C3.03692 4.92685 3.49197 5.07377 3.56092 5.28955C3.87348 6.28585 3.3219 23.5168 3.56092 26.1705C8.21712 26.7352 13.7374 25.4359 18.1592 27.1117C19.0004 27.4331 21.0734 28.8151 21.7123 28.7141C21.8869 28.6865 23.8634 27.4744 24.8471 27.1117C28.8873 25.6196 34.8351 26.524 39.2707 26.2761L39.4454 26.1016V5.22068C39.7809 4.83043 40.2635 4.8993 40.4887 5.35842C40.213 7.99838 40.8748 26.0236 40.4198 27.0015C40.3876 27.0704 40.1072 27.2954 40.0383 27.3137C39.3442 27.4928 30.1651 27.1071 27.9129 27.3826C25.3664 27.6994 22.8108 29.4395 21.9881 29.5405C20.0576 29.7746 18.1408 27.7591 15.0888 27.3826C13.1583 27.1439 3.29892 27.5341 2.75654 27.2449C2.69679 27.2127 2.52672 26.9878 2.51293 26.9327C2.24634 25.8813 2.71977 8.04889 2.51293 5.21609C2.53132 5.16559 2.77952 4.98194 2.82549 4.97276L2.83008 4.97735Z" fill="#D15353"/>
<path d="M4.51698 29.6093C2.20037 29.6093 1.30407 29.5542 1.02368 29.4119C0.564038 29.1778 0.476706 28.8931 0.421549 28.5717C0.416952 28.5396 0.40776 28.5028 0.403163 28.4661C0.274463 27.8325 0.306638 23.4203 0.375585 16.2305C0.426146 10.9092 0.481303 5.4089 0.389374 3.82493C0.389374 3.80197 0.389374 3.7836 0.389374 3.76065C0.40776 3.46222 0.536461 3.20511 0.75709 3.01687C1.30407 2.54856 2.28771 2.63579 3.07829 2.70466C3.26675 2.72303 3.44141 2.7368 3.56552 2.74139C3.85509 2.74599 4.08492 2.98473 4.08032 3.27398C4.07572 3.56323 3.83671 3.79279 3.54713 3.7882C3.38626 3.7882 3.2024 3.76983 2.98636 3.75147C2.64163 3.71933 1.60283 3.6275 1.43277 3.82033C1.5201 5.49614 1.46954 10.9643 1.41438 16.2488C1.36382 21.6114 1.30407 27.6948 1.41898 28.2687C1.42817 28.3146 1.43736 28.3559 1.44196 28.3972C1.44196 28.4202 1.45115 28.4523 1.45575 28.4753C1.45575 28.4753 1.46035 28.4753 1.46494 28.4799C2.06248 28.6222 6.35556 28.5717 9.49953 28.535C12.7814 28.4983 15.8794 28.4615 16.7803 28.5671C17.0653 28.5993 17.2721 28.861 17.2399 29.1456C17.2078 29.4303 16.9458 29.6369 16.6608 29.6047C15.8242 29.5083 12.6159 29.5451 9.51332 29.5818C7.36678 29.6093 5.73504 29.6231 4.50779 29.6231L4.51698 29.6093Z" fill="#525152"/>
<path d="M21.533 27.3091C21.3124 27.3091 21.0918 27.1989 20.6183 26.9694C19.6577 26.4965 17.8651 25.6104 15.2635 25.2614C12.5746 24.8987 6.82442 25.1375 5.12833 25.2201C4.96746 25.2293 4.81577 25.1604 4.71005 25.0411C4.60434 24.9217 4.55837 24.761 4.59055 24.6049L4.779 23.581L4.72384 2.47052C4.72384 2.47052 4.72384 2.44297 4.72384 2.4292L4.73763 2.22718C4.779 1.62573 4.81577 1.14824 5.27082 0.822264C5.62475 0.565155 6.13036 0.473329 7.2335 0.285088C10.929 -0.339321 18.003 0.142761 21.5193 2.59448C24.0427 0.99214 27.3567 0.165717 31.6314 0.0693008C32.2244 0.0555271 33.5665 0.0647094 34.8535 0.174899C37.2207 0.376914 37.7953 0.790125 38.0343 1.12529C38.094 1.20793 38.1262 1.30434 38.1308 1.40535C38.2825 5.10589 38.2549 8.86612 38.2273 12.507C38.1997 16.4692 38.1676 20.5646 38.3698 24.5728C38.379 24.7151 38.3284 24.8528 38.2319 24.9538C38.1354 25.0594 38.0021 25.1145 37.8596 25.1191C36.6553 25.1421 35.4695 25.1191 34.3249 25.0962C29.9859 25.0181 25.8859 24.9401 21.7996 27.2403C21.7261 27.2816 21.6434 27.3045 21.5606 27.3091C21.556 27.3091 21.5468 27.3091 21.5422 27.3091H21.533ZM10.9658 24.0218C12.6343 24.0218 14.2615 24.0723 15.406 24.2284C18.1776 24.6003 20.1403 25.5691 21.0826 26.0374C21.2205 26.1062 21.3722 26.1797 21.4779 26.2302C25.7388 23.9024 29.917 23.9805 34.3387 24.0585C35.304 24.0769 36.2968 24.0953 37.2988 24.0861C37.1242 20.2248 37.1518 16.3039 37.1793 12.5024C37.2069 8.94417 37.2299 5.27118 37.092 1.66246C36.4853 1.29975 33.778 1.07019 31.6544 1.1161C27.3521 1.20793 24.222 2.02058 21.7996 3.66424C21.6112 3.7928 21.363 3.78361 21.1837 3.64588C18.1409 1.2768 11.1129 0.693708 7.41276 1.31812C6.7187 1.43749 6.06141 1.54768 5.88674 1.67164C5.82699 1.71756 5.80861 1.97926 5.78103 2.30982L5.76724 2.49348L5.82239 23.6315C5.82239 23.6637 5.82239 23.6958 5.8132 23.728L5.73506 24.1504C7.06803 24.0907 9.03991 24.0218 10.9612 24.0218H10.9658Z" fill="#515051"/>
<path d="M18.8027 7.47956C18.7476 7.47956 18.6878 7.47037 18.6327 7.45201C15.0337 6.20319 11.1818 5.90476 7.4909 6.58885C7.20592 6.63936 6.93473 6.45571 6.87957 6.17105C6.82901 5.88639 7.01287 5.61551 7.29785 5.56042C11.1681 4.83959 15.2037 5.1518 18.9728 6.4603C19.244 6.55672 19.3911 6.85056 19.2946 7.12603C19.221 7.34182 19.0188 7.47496 18.8027 7.47496V7.47956Z" fill="#515051"/>
<path d="M18.5913 12.1535C18.5316 12.1535 18.4718 12.1443 18.412 12.1213C15.2589 10.9735 11.545 10.6705 7.67935 11.249C7.39437 11.2949 7.12777 11.0929 7.08641 10.8082C7.04504 10.5236 7.24268 10.2573 7.52766 10.216C11.5679 9.6145 15.4565 9.9313 18.7706 11.1434C19.0418 11.2444 19.1796 11.5428 19.0831 11.8137C19.005 12.0249 18.8073 12.158 18.5913 12.158V12.1535Z" fill="#515051"/>
<path d="M18.7338 16.8778C18.6786 16.8778 18.6189 16.8687 18.5637 16.8503C15.0796 15.6428 11.2738 15.3444 7.55525 15.9825C7.27027 16.033 6.99908 15.8402 6.95312 15.5556C6.90256 15.2709 7.09561 15 7.38059 14.9541C11.2738 14.2838 15.2589 14.596 18.9085 15.8632C19.1797 15.9596 19.3267 16.2534 19.2302 16.5289C19.1567 16.7447 18.9544 16.8778 18.7384 16.8778H18.7338Z" fill="#515051"/>
<path d="M18.5316 21.4553C18.481 21.4553 18.4258 21.4461 18.3707 21.4323C15.0061 20.3626 11.4071 20.0917 7.67935 20.6335C7.39437 20.6748 7.12777 20.4774 7.08641 20.1927C7.04504 19.9081 7.24268 19.6418 7.52766 19.6004C11.4163 19.0357 15.1715 19.3158 18.6878 20.436C18.9636 20.5233 19.1153 20.8171 19.028 21.0926C18.959 21.313 18.7522 21.4553 18.5316 21.4553Z" fill="#515051"/>
<path d="M21.5008 25.0548C21.2526 25.0548 21.0458 24.8528 21.0458 24.6003V5.18393C21.0458 4.93601 21.2434 4.7294 21.4962 4.7294C21.749 4.7294 21.9513 4.93142 21.9513 5.18393V24.6003C21.9513 24.8482 21.7536 25.0548 21.5008 25.0548Z" fill="#4F4F50"/>
<path d="M24.346 7.49333C24.1346 7.49333 23.9369 7.36478 23.8588 7.15817C23.7531 6.88729 23.891 6.58886 24.1576 6.48326C27.4256 5.22526 31.2361 4.88551 35.474 5.4686C35.759 5.50992 35.9612 5.77162 35.9199 6.05628C35.8785 6.34093 35.6165 6.54295 35.3315 6.50163C31.2683 5.9415 27.6371 6.26288 24.5345 7.45661C24.4747 7.47956 24.4104 7.49333 24.346 7.49333Z" fill="#515051"/>
<path d="M24.4104 12.1489C24.199 12.1489 23.9967 12.0157 23.9186 11.8045C23.822 11.5336 23.9599 11.2352 24.2311 11.1342C27.3613 9.99557 31.0477 9.65582 35.1799 10.1241C35.4648 10.1563 35.6717 10.4134 35.6395 10.7026C35.6073 10.9873 35.3499 11.1939 35.0604 11.1617C31.089 10.7118 27.5636 11.0332 24.5851 12.1167C24.5253 12.1397 24.4656 12.1489 24.4058 12.1489H24.4104Z" fill="#515051"/>
<path d="M24.4793 16.8044C24.2587 16.8044 24.0565 16.6666 23.9829 16.4463C23.891 16.1708 24.0381 15.8769 24.3139 15.7851C27.7428 14.6465 31.5303 14.3297 35.2672 14.8715C35.5522 14.9128 35.7498 15.1791 35.7085 15.4637C35.6671 15.7484 35.4051 15.9458 35.1155 15.9045C31.5395 15.3903 27.9175 15.6887 24.6402 16.7768C24.5851 16.7952 24.5299 16.8044 24.4747 16.8044H24.4793Z" fill="#515051"/>
<path d="M23.9875 21.5885C23.7669 21.5885 23.5601 21.4461 23.4865 21.2212C23.3992 20.9457 23.5555 20.6518 23.8313 20.5692C27.8486 19.3204 31.3005 19.0357 35.7452 19.5867C36.0302 19.6234 36.2371 19.8851 36.2003 20.1698C36.1635 20.4544 35.9015 20.6564 35.6165 20.6243C31.3327 20.0917 28.0048 20.3672 24.1392 21.5655C24.0887 21.5793 24.0335 21.5885 23.9829 21.5885H23.9875Z" fill="#515051"/>
<path d="M38.9581 29.6231C37.7538 29.6231 36.0945 29.6002 33.8285 29.568C30.5099 29.5175 27.0763 29.4624 26.2122 29.5864C25.9272 29.6277 25.6606 29.4303 25.6192 29.141C25.5779 28.8564 25.7755 28.5901 26.0651 28.5488C27.012 28.4156 30.3352 28.4661 33.8469 28.5212C36.9311 28.5671 40.7461 28.6268 41.431 28.5029C41.408 26.8087 41.4586 22.6123 41.5091 18.1818C41.5781 12.2177 41.6654 4.7937 41.5505 4.004C41.5229 3.80199 41.477 3.75148 41.477 3.75148C41.4172 3.70557 41.1001 3.71935 40.8886 3.72394C40.5301 3.73771 40.0797 3.75148 39.5603 3.65507C39.2753 3.59997 39.0914 3.32909 39.142 3.04443C39.1971 2.75978 39.4683 2.57613 39.7533 2.62663C40.1578 2.70468 40.5255 2.69091 40.8473 2.67713C41.5045 2.65418 42.41 2.62204 42.5801 3.85249C42.695 4.65596 42.6399 10.3032 42.5479 18.1863C42.4928 22.8143 42.4422 27.1806 42.4744 28.6911C42.4744 28.76 42.4652 28.8288 42.4376 28.8931C42.3043 29.2283 42.0791 29.3431 41.9136 29.4303C41.6562 29.5634 40.884 29.6185 38.9581 29.6185V29.6231Z" fill="#504F50"/>
</g>
<defs>
<clipPath id="clip0_77_233">
<rect width="180" height="30" fill="white"/>
</clipPath>
</defs>
</svg>
